<?xml version="1.0" standalone="no"?>
<!DOCTYPE svg PUBLIC "-//W3C//DTD SVG 20010904//EN"
 "http://www.w3.org/TR/2001/REC-SVG-20010904/DTD/svg10.dtd">
<svg version="1.0" xmlns="http://www.w3.org/2000/svg"
 width="225.000000pt" height="60.000000pt" viewBox="0 0 225.000000 60.000000"
 preserveAspectRatio="xMidYMid meet">

<g transform="translate(0.000000,60.000000) scale(0.100000,-0.100000)"
fill="#000000" stroke="none">
<path d="M237 590 c-140 -35 -229 -148 -228 -287 1 -128 60 -228 163 -274 79
-35 193 -34 269 3 30 15 66 39 79 53 l24 25 -34 34 -33 35 -36 -29 c-74 -58
-164 -63 -247 -15 -101 59 -113 229 -21 313 62 57 185 58 265 2 l45 -31 33 32
34 33 -22 23 c-59 63 -205 104 -291 83z"/>
<path d="M881 323 c-23 -142 -45 -269 -48 -283 -4 -24 -3 -25 46 -22 28 2 51
7 51 10 1 22 59 334 63 338 3 3 28 -65 56 -150 74 -223 61 -202 114 -198 l45
4 58 173 c32 96 61 172 63 169 5 -5 15 -56 50 -271 l12 -71 51 -4 c48 -3 49
-2 45 22 -3 14 -24 141 -48 283 l-42 257 -51 0 -52 0 -64 -195 c-35 -107 -67
-195 -70 -195 -3 0 -33 88 -68 195 l-63 195 -52 0 -53 0 -43 -257z"/>
<path d="M1940 530 l0 -50 50 0 50 0 0 -229 0 -229 50 -4 50 -3 0 233 0 232
55 0 55 0 0 50 0 50 -155 0 -155 0 0 -50z"/>
<path d="M640 245 l0 -225 55 0 55 0 0 225 0 225 -55 0 -55 0 0 -225z"/>
<path d="M1580 195 l0 -175 155 0 155 0 0 50 0 49 -102 3 -103 3 -3 72 -3 72
103 3 103 3 3 48 3 47 -155 0 -156 0 0 -175z"/>
</g>
</svg>
